<svg 
 xmlns="http://www.w3.org/2000/svg"
 xmlns:xlink="http://www.w3.org/1999/xlink"
 width="30px" height="24px">
<path fill-rule="evenodd" 
 d="M29.213,23.200 C28.689,23.735 28.058,24.002 27.321,24.002 L2.678,24.002 C1.942,24.002 1.311,23.735 0.787,23.200 C0.262,22.666 -0.000,22.024 -0.000,21.274 L-0.000,7.737 C0.491,8.293 1.055,8.788 1.691,9.220 C5.731,12.016 8.504,13.977 10.011,15.102 C10.647,15.579 11.163,15.951 11.559,16.218 C11.956,16.486 12.483,16.758 13.141,17.037 C13.800,17.315 14.414,17.455 14.983,17.455 L15.000,17.455 L15.017,17.455 C15.586,17.455 16.200,17.315 16.858,17.037 C17.517,16.758 18.044,16.486 18.440,16.218 C18.837,15.951 19.353,15.579 19.989,15.102 C21.886,13.704 24.665,11.743 28.326,9.220 C28.962,8.777 29.520,8.282 30.000,7.737 L30.000,21.274 C30.000,22.024 29.738,22.666 29.213,23.200 ZM27.137,7.395 C22.941,10.362 20.329,12.209 19.303,12.936 C19.191,13.017 18.954,13.189 18.591,13.456 C18.228,13.724 17.927,13.940 17.687,14.105 C17.447,14.269 17.157,14.453 16.817,14.658 C16.476,14.862 16.155,15.017 15.854,15.118 C15.553,15.221 15.274,15.272 15.017,15.272 L15.000,15.272 L14.983,15.272 C14.726,15.272 14.447,15.221 14.146,15.118 C13.845,15.017 13.524,14.862 13.183,14.658 C12.843,14.454 12.553,14.269 12.312,14.105 C12.073,13.940 11.771,13.724 11.409,13.456 C11.046,13.189 10.809,13.017 10.697,12.936 C9.682,12.209 8.220,11.172 6.311,9.825 C4.403,8.478 3.259,7.669 2.879,7.396 C2.187,6.918 1.534,6.262 0.921,5.426 C0.307,4.591 -0.000,3.815 -0.000,3.099 C-0.000,2.213 0.231,1.473 0.695,0.883 C1.158,0.291 1.819,-0.004 2.678,-0.004 L27.321,-0.004 C28.046,-0.004 28.674,0.263 29.204,0.797 C29.735,1.331 30.000,1.974 30.000,2.724 C30.000,3.622 29.727,4.480 29.179,5.298 C28.633,6.116 27.952,6.816 27.137,7.395 Z"/>
</svg>