<svg 
 xmlns="http://www.w3.org/2000/svg"
 xmlns:xlink="http://www.w3.org/1999/xlink"
 width="25px" height="25px">
<path fill-rule="evenodd"  fill="rgb(209, 31, 61)"
 d="M24.435,19.759 L20.576,15.892 C19.807,15.125 18.534,15.148 17.738,15.945 L15.794,17.893 C15.671,17.824 15.544,17.753 15.410,17.678 C14.183,16.997 12.502,16.063 10.733,14.290 C8.959,12.515 8.026,10.828 7.344,9.597 C7.271,9.466 7.202,9.341 7.134,9.222 L8.439,7.917 L9.081,7.273 C9.878,6.475 9.900,5.200 9.133,4.431 L5.273,0.564 C4.506,-0.205 3.232,-0.181 2.435,0.617 L1.348,1.713 L1.378,1.742 C1.013,2.209 0.708,2.747 0.481,3.326 C0.272,3.878 0.142,4.405 0.082,4.933 C-0.427,9.165 1.503,13.033 6.743,18.281 C13.986,25.535 19.823,24.987 20.075,24.960 C20.623,24.895 21.149,24.764 21.683,24.555 C22.257,24.331 22.794,24.027 23.258,23.662 L23.282,23.683 L24.384,22.602 C25.180,21.804 25.202,20.529 24.435,19.759 Z"/>
</svg>