<svg 
 xmlns="http://www.w3.org/2000/svg"
 xmlns:xlink="http://www.w3.org/1999/xlink"
 width="20px" height="21px">
<path fill-rule="evenodd"  fill="rgb(187, 187, 187)"
 d="M19.688,19.127 L14.759,13.929 C16.026,12.402 16.720,10.480 16.720,8.479 C16.720,3.804 12.970,0.000 8.359,0.000 C3.749,0.000 -0.002,3.804 -0.002,8.479 C-0.002,13.154 3.749,16.957 8.359,16.957 C10.090,16.957 11.739,16.428 13.149,15.423 L18.116,20.660 C18.323,20.879 18.602,21.000 18.902,21.000 C19.185,21.000 19.453,20.890 19.657,20.691 C20.091,20.268 20.105,19.567 19.688,19.127 ZM8.359,2.212 C11.767,2.212 14.539,5.023 14.539,8.479 C14.539,11.934 11.767,14.745 8.359,14.745 C4.951,14.745 2.179,11.934 2.179,8.479 C2.179,5.023 4.951,2.212 8.359,2.212 Z"/>
</svg>